<?xml version="1.0" encoding="UTF-8" standalone="no"?>
<!-- Created with Inkscape (http://www.inkscape.org/) -->

<svg
   width="500.00003"
   height="500.00003"
   viewBox="0 0 132.29168 132.29168"
   version="1.1"
   id="svg8"
   inkscape:version="1.1 (c68e22c387, 2021-05-23)"
   sodipodi:docname="maskable.svg"
   inkscape:export-filename="C:\Users\l_bre\projects\covid19_it\public\favicons\maskable_16.png"
   inkscape:export-xdpi="3.0719998"
   inkscape:export-ydpi="3.0719998"
   xmlns:inkscape="http://www.inkscape.org/namespaces/inkscape"
   xmlns:sodipodi="http://sodipodi.sourceforge.net/DTD/sodipodi-0.dtd"
   xmlns="http://www.w3.org/2000/svg"
   xmlns:svg="http://www.w3.org/2000/svg"
   xmlns:rdf="http://www.w3.org/1999/02/22-rdf-syntax-ns#"
   xmlns:cc="http://creativecommons.org/ns#"
   xmlns:dc="http://purl.org/dc/elements/1.1/">
  <defs
     id="defs2" />
  <sodipodi:namedview
     id="base"
     pagecolor="#ffffff"
     bordercolor="#666666"
     borderopacity="1.0"
     inkscape:pageopacity="0.0"
     inkscape:pageshadow="2"
     inkscape:zoom="0.5"
     inkscape:cx="146"
     inkscape:cy="281"
     inkscape:document-units="mm"
     inkscape:current-layer="layer1"
     showgrid="false"
     fit-margin-top="0"
     fit-margin-left="0"
     fit-margin-right="0"
     fit-margin-bottom="0"
     inkscape:window-width="1366"
     inkscape:window-height="705"
     inkscape:window-x="-8"
     inkscape:window-y="32"
     inkscape:window-maximized="1"
     inkscape:pagecheckerboard="0"
     units="px"
     width="1000px"
     showguides="true"
     inkscape:guide-bbox="true">
    <sodipodi:guide
       position="1.511898,112.44793"
       orientation="0,1"
       id="guide938"
       inkscape:label=""
       inkscape:locked="false"
       inkscape:color="rgb(0,0,255)" />
    <sodipodi:guide
       position="-1.1339299,-355.20834"
       orientation="0,1"
       id="guide940"
       inkscape:label=""
       inkscape:locked="false"
       inkscape:color="rgb(0,0,255)" />
    <sodipodi:guide
       position="42.711311,19.843759"
       orientation="0,1"
       id="guide942"
       inkscape:label=""
       inkscape:locked="false"
       inkscape:color="rgb(0,0,255)" />
    <sodipodi:guide
       position="19.843751,144.76489"
       orientation="-1,0"
       id="guide944"
       inkscape:label=""
       inkscape:locked="false"
       inkscape:color="rgb(0,0,255)" />
    <sodipodi:guide
       position="112.44792,141.36311"
       orientation="-1,0"
       id="guide946"
       inkscape:label=""
       inkscape:locked="false"
       inkscape:color="rgb(0,0,255)" />
  </sodipodi:namedview>
  <metadata
     id="metadata5">
    <rdf:RDF>
      <cc:Work
         rdf:about="">
        <dc:format>image/svg+xml</dc:format>
        <dc:type
           rdf:resource="http://purl.org/dc/dcmitype/StillImage" />
      </cc:Work>
    </rdf:RDF>
  </metadata>
  <g
     inkscape:label="Livello 1"
     inkscape:groupmode="layer"
     id="layer1"
     transform="translate(-51.026859,-93.449509)">
    <rect
       style="fill:#343a40;fill-opacity:1;stroke-width:0.264583"
       id="rect992"
       width="132.29167"
       height="132.29167"
       x="51.026859"
       y="93.449509" />
    <path
       style="fill:#dc3545;fill-opacity:1;stroke-width:1.09131;stroke-miterlimit:4;stroke-dasharray:none"
       d="m 117.89104,113.29291 a 4.3119175,4.3505285 0 0 0 -4.31194,4.35052 4.3119175,4.3505285 0 0 0 3.08012,4.16642 v 7.44519 a 30.79941,31.075203 0 0 0 -15.46059,4.35054 l -4.177739,-7.23219 a 4.3119175,4.3505285 0 0 0 0.953354,-2.72247 4.3119175,4.3505285 0 0 0 -4.311916,-4.35054 4.3119175,4.3505285 0 0 0 -4.311921,4.35054 4.3119175,4.3505285 0 0 0 4.311921,4.35053 4.3119175,4.3505285 0 0 0 0.700676,-0.0597 l 4.263064,7.38116 a 30.79941,31.075203 0 0 0 -9.601865,11.78494 l -2.200882,-1.20318 a 4.3119175,4.3505285 0 0 0 -4.248469,-3.60845 4.3119175,4.3505285 0 0 0 -4.311916,4.35053 4.3119175,4.3505285 0 0 0 4.311916,4.35052 4.3119175,4.3505285 0 0 0 2.354714,-0.70811 l 2.393444,1.308 a 30.79941,31.075203 0 0 0 -1.257641,8.72261 30.79941,31.075203 0 0 0 0.0691,1.3935 l -7.28422,1.29667 a 4.3119175,4.3505285 0 0 0 -3.667374,-2.06875 4.3119175,4.3505285 0 0 0 -4.311918,4.35051 4.3119175,4.3505285 0 0 0 4.311918,4.35054 4.3119175,4.3505285 0 0 0 4.240053,-3.57899 l 7.00518,-1.24627 a 30.79941,31.075203 0 0 0 3.118283,9.79608 l -7.576178,4.88302 a 4.3119175,4.3505285 0 0 0 -2.065002,-0.53137 4.3119175,4.3505285 0 0 0 -4.311917,4.35053 4.3119175,4.3505285 0 0 0 4.311917,4.35054 4.3119175,4.3505285 0 0 0 4.29227,-3.9506 l 7.844546,-5.05693 a 30.79941,31.075203 0 0 0 7.434136,7.27071 l -2.085232,2.83182 a 4.3119175,4.3505285 0 0 0 -1.469864,-0.26625 4.3119175,4.3505285 0 0 0 -4.31192,4.35051 4.3119175,4.3505285 0 0 0 4.31192,4.35052 4.3119175,4.3505285 0 0 0 4.311902,-4.35052 4.3119175,4.3505285 0 0 0 -0.508667,-2.0427 l 2.386717,-3.24137 a 30.79941,31.075203 0 0 0 11.36594,3.6079 v 6.49745 a 4.3119175,4.3505285 0 0 0 -2.36144,3.87979 4.3119175,4.3505285 0 0 0 4.31191,4.35053 4.3119175,4.3505285 0 0 0 4.31189,-4.35053 4.3119175,4.3505285 0 0 0 -1.54004,-3.33202 v -6.88662 a 30.79941,31.075203 0 0 0 10.40196,-2.29082 l 0.64456,1.26946 a 4.3119175,4.3505285 0 0 0 -0.67713,2.33161 4.3119175,4.3505285 0 0 0 4.31194,4.35053 4.3119175,4.3505285 0 0 0 4.3119,-4.35053 4.3119175,4.3505285 0 0 0 -3.63594,-4.29163 l -0.75233,-1.48131 a 30.79941,31.075203 0 0 0 7.45208,-6.38532 l 5.29388,5.47271 a 4.3119175,4.3505285 0 0 0 -0.35034,1.71361 4.3119175,4.3505285 0 0 0 4.31193,4.35052 4.3119175,4.3505285 0 0 0 4.3119,-4.35052 4.3119175,4.3505285 0 0 0 -4.3119,-4.35054 4.3119175,4.3505285 0 0 0 -1.81347,0.40899 l -5.54375,-5.73048 a 30.79941,31.075203 0 0 0 4.35404,-9.26014 l 8.38801,1.92204 a 4.3119175,4.3505285 0 0 0 4.26591,3.75123 4.3119175,4.3505285 0 0 0 4.3119,-4.35056 4.3119175,4.3505285 0 0 0 -4.3119,-4.35052 4.3119175,4.3505285 0 0 0 -3.5753,1.92148 l -8.39365,-1.92375 a 30.79941,31.075203 0 0 0 0.47051,-5.38376 30.79941,31.075203 0 0 0 -0.66477,-6.37401 l 6.37019,-1.64334 a 4.3119175,4.3505285 0 0 0 2.71292,0.97322 4.3119175,4.3505285 0 0 0 4.31191,-4.35054 4.3119175,4.3505285 0 0 0 -4.31191,-4.35051 4.3119175,4.3505285 0 0 0 -4.14798,3.17905 l -6.28317,1.62125 a 30.79941,31.075203 0 0 0 -9.72429,-13.4566 l 3.63593,-5.3781 a 4.3119175,4.3505285 0 0 0 1.1201,0.15464 4.3119175,4.3505285 0 0 0 4.31194,-4.35052 4.3119175,4.3505285 0 0 0 -4.31194,-4.35053 4.3119175,4.3505285 0 0 0 -4.31191,4.35053 4.3119175,4.3505285 0 0 0 0.69731,2.37072 l -3.65276,5.40358 a 30.79941,31.075203 0 0 0 -13.67631,-4.7108 v -7.83887 a 4.3119175,4.3505285 0 0 0 2.46365,-3.92571 4.3119175,4.3505285 0 0 0 -4.31192,-4.35051 z m -12.11435,35.83975 a 4.9279058,4.9720325 0 0 1 4.9278,4.97196 4.9279058,4.9720325 0 0 1 -4.9278,4.97196 4.9279058,4.9720325 0 0 1 -4.92783,-4.97196 4.9279058,4.9720325 0 0 1 4.92783,-4.97196 z m 18.89045,5.80069 a 4.9279058,4.9720325 0 0 1 4.92782,4.97195 4.9279058,4.9720325 0 0 1 -4.92782,4.97196 4.9279058,4.9720325 0 0 1 -4.92784,-4.97196 4.9279058,4.9720325 0 0 1 4.92784,-4.97195 z m -14.78348,13.25894 a 4.9279058,4.9720325 0 0 1 4.92783,4.97193 4.9279058,4.9720325 0 0 1 -4.92783,4.97195 4.9279058,4.9720325 0 0 1 -4.92838,-4.97195 4.9279058,4.9720325 0 0 1 4.92838,-4.97193 z"
       id="path4518"
       inkscape:connector-curvature="0"
       inkscape:export-filename="C:\Users\l_bre\projects\covid19_it\public\favicons\maskable_512.png"
       inkscape:export-xdpi="140.43466"
       inkscape:export-ydpi="140.43466" />
  </g>
</svg>
