<?xml version="1.0" encoding="UTF-8" standalone="no"?>
<!-- Created with Inkscape (http://www.inkscape.org/) -->

<svg
   width="500.00003"
   height="500.00003"
   viewBox="0 0 132.29168 132.29168"
   version="1.1"
   id="svg8"
   inkscape:version="1.1 (c68e22c387, 2021-05-23)"
   sodipodi:docname="maskable.svg"
   xmlns:inkscape="http://www.inkscape.org/namespaces/inkscape"
   xmlns:sodipodi="http://sodipodi.sourceforge.net/DTD/sodipodi-0.dtd"
   xmlns="http://www.w3.org/2000/svg"
   xmlns:svg="http://www.w3.org/2000/svg"
   xmlns:rdf="http://www.w3.org/1999/02/22-rdf-syntax-ns#"
   xmlns:cc="http://creativecommons.org/ns#"
   xmlns:dc="http://purl.org/dc/elements/1.1/">
  <defs
     id="defs2" />
  <sodipodi:namedview
     id="base"
     pagecolor="#ffffff"
     bordercolor="#666666"
     borderopacity="1.0"
     inkscape:pageopacity="0.0"
     inkscape:pageshadow="2"
     inkscape:zoom="0.35"
     inkscape:cx="25.714286"
     inkscape:cy="215.71429"
     inkscape:document-units="mm"
     inkscape:current-layer="layer1"
     showgrid="false"
     fit-margin-top="0"
     fit-margin-left="0"
     fit-margin-right="0"
     fit-margin-bottom="0"
     inkscape:window-width="1366"
     inkscape:window-height="705"
     inkscape:window-x="-8"
     inkscape:window-y="32"
     inkscape:window-maximized="1"
     inkscape:pagecheckerboard="0"
     units="px"
     width="1000px"
     showguides="true"
     inkscape:guide-bbox="true">
    <sodipodi:guide
       position="1.5118987,103.18751"
       orientation="0,1"
       id="guide938"
       inkscape:label=""
       inkscape:locked="false"
       inkscape:color="rgb(0,0,255)" />
    <sodipodi:guide
       position="-1.1339299,-355.20834"
       orientation="0,1"
       id="guide940"
       inkscape:label=""
       inkscape:locked="false"
       inkscape:color="rgb(0,0,255)" />
    <sodipodi:guide
       position="42.71131,29.104173"
       orientation="0,1"
       id="guide942"
       inkscape:label=""
       inkscape:locked="false"
       inkscape:color="rgb(0,0,255)" />
    <sodipodi:guide
       position="29.104166,144.76489"
       orientation="-1,0"
       id="guide944"
       inkscape:label=""
       inkscape:locked="false"
       inkscape:color="rgb(0,0,255)" />
    <sodipodi:guide
       position="103.1875,141.36311"
       orientation="-1,0"
       id="guide946"
       inkscape:label=""
       inkscape:locked="false"
       inkscape:color="rgb(0,0,255)" />
  </sodipodi:namedview>
  <metadata
     id="metadata5">
    <rdf:RDF>
      <cc:Work
         rdf:about="">
        <dc:format>image/svg+xml</dc:format>
        <dc:type
           rdf:resource="http://purl.org/dc/dcmitype/StillImage" />
      </cc:Work>
    </rdf:RDF>
  </metadata>
  <g
     inkscape:label="Livello 1"
     inkscape:groupmode="layer"
     id="layer1"
     transform="translate(-51.026859,-93.449509)">
    <rect
       style="fill:#343a40;fill-opacity:1;stroke-width:0.264583"
       id="rect992"
       width="132.29167"
       height="132.29167"
       x="51.026859"
       y="93.449509" />
    <path
       style="fill:#dc3545;fill-opacity:1;stroke-width:0.873881;stroke-miterlimit:4;stroke-dasharray:none"
       d="m 117.80886,122.55368 a 3.4530483,3.4834387 0 0 0 -3.45305,3.48344 3.4530483,3.4834387 0 0 0 2.46659,3.33603 v 5.96131 a 24.664631,24.881705 0 0 0 -12.38106,3.48344 l -3.3456,-5.79076 a 3.4530483,3.4834387 0 0 0 0.76346,-2.17987 3.4530483,3.4834387 0 0 0 -3.453048,-3.48345 3.4530483,3.4834387 0 0 0 -3.453052,3.48345 3.4530483,3.4834387 0 0 0 3.453052,3.48344 3.4530483,3.4834387 0 0 0 0.561111,-0.0477 l 3.413927,5.91005 a 24.664631,24.881705 0 0 0 -7.689318,9.43612 l -1.762499,-0.96338 a 3.4530483,3.4834387 0 0 0 -3.402238,-2.88926 3.4530483,3.4834387 0 0 0 -3.453047,3.48344 3.4530483,3.4834387 0 0 0 3.453047,3.48344 3.4530483,3.4834387 0 0 0 1.88569,-0.56698 l 1.916706,1.04731 a 24.664631,24.881705 0 0 0 -1.007137,6.98412 24.664631,24.881705 0 0 0 0.05533,1.11578 l -5.833311,1.03823 a 3.4530483,3.4834387 0 0 0 -2.936889,-1.65644 3.4530483,3.4834387 0 0 0 -3.453049,3.48343 3.4530483,3.4834387 0 0 0 3.453049,3.48344 3.4530483,3.4834387 0 0 0 3.395498,-2.86567 l 5.609853,-0.99787 a 24.664631,24.881705 0 0 0 2.497169,7.84364 l -6.067117,3.9098 a 3.4530483,3.4834387 0 0 0 -1.653684,-0.42546 3.4530483,3.4834387 0 0 0 -3.453049,3.48345 3.4530483,3.4834387 0 0 0 3.453049,3.48344 3.4530483,3.4834387 0 0 0 3.437313,-3.16322 l 6.282031,-4.04905 a 24.664631,24.881705 0 0 0 5.953363,5.8216 l -1.66988,2.26742 a 3.4530483,3.4834387 0 0 0 -1.17709,-0.21318 3.4530483,3.4834387 0 0 0 -3.45305,3.48344 3.4530483,3.4834387 0 0 0 3.45305,3.48343 3.4530483,3.4834387 0 0 0 3.45304,-3.48343 3.4530483,3.4834387 0 0 0 -0.40735,-1.63558 l 1.91131,-2.59535 a 24.664631,24.881705 0 0 0 9.10203,2.88881 v 5.20247 a 3.4530483,3.4834387 0 0 0 -1.89109,3.10652 3.4530483,3.4834387 0 0 0 3.45305,3.48344 3.4530483,3.4834387 0 0 0 3.45304,-3.48344 3.4530483,3.4834387 0 0 0 -1.23329,-2.66791 v -5.51408 a 24.664631,24.881705 0 0 0 8.33004,-1.83425 l 0.51616,1.01645 a 3.4530483,3.4834387 0 0 0 -0.54225,1.86691 3.4530483,3.4834387 0 0 0 3.45306,3.48344 3.4530483,3.4834387 0 0 0 3.45304,-3.48344 3.4530483,3.4834387 0 0 0 -2.9117,-3.43627 l -0.60249,-1.18609 a 24.664631,24.881705 0 0 0 5.96774,-5.11268 l 4.23942,4.38197 a 3.4530483,3.4834387 0 0 0 -0.28056,1.37207 3.4530483,3.4834387 0 0 0 3.45305,3.48343 3.4530483,3.4834387 0 0 0 3.45305,-3.48343 3.4530483,3.4834387 0 0 0 -3.45305,-3.48344 3.4530483,3.4834387 0 0 0 -1.45225,0.32747 l -4.43951,-4.58835 a 24.664631,24.881705 0 0 0 3.48677,-7.41454 l 6.71726,1.53897 a 3.4530483,3.4834387 0 0 0 3.41619,3.00356 3.4530483,3.4834387 0 0 0 3.45304,-3.48344 3.4530483,3.4834387 0 0 0 -3.45304,-3.48343 3.4530483,3.4834387 0 0 0 -2.86315,1.53851 l -6.72177,-1.54033 a 24.664631,24.881705 0 0 0 0.37679,-4.31075 24.664631,24.881705 0 0 0 -0.53235,-5.10362 l 5.10134,-1.3158 a 3.4530483,3.4834387 0 0 0 2.17254,0.77923 3.4530483,3.4834387 0 0 0 3.45305,-3.48344 3.4530483,3.4834387 0 0 0 -3.45305,-3.48343 3.4530483,3.4834387 0 0 0 -3.32176,2.54545 l -5.03165,1.29812 a 24.664631,24.881705 0 0 0 -7.78735,-10.77462 l 2.91172,-4.30622 a 3.4530483,3.4834387 0 0 0 0.89698,0.12382 3.4530483,3.4834387 0 0 0 3.45305,-3.48344 3.4530483,3.4834387 0 0 0 -3.45305,-3.48343 3.4530483,3.4834387 0 0 0 -3.45304,3.48343 3.4530483,3.4834387 0 0 0 0.55842,1.89822 l -2.92519,4.32662 a 24.664631,24.881705 0 0 0 -10.9522,-3.77191 v -6.27654 a 3.4530483,3.4834387 0 0 0 1.97292,-3.14327 3.4530483,3.4834387 0 0 0 -3.45304,-3.48343 z m -9.70135,28.69665 a 3.9463409,3.9810727 0 0 1 3.94626,3.98101 3.9463409,3.9810727 0 0 1 -3.94626,3.98101 3.9463409,3.9810727 0 0 1 -3.94628,-3.98101 3.9463409,3.9810727 0 0 1 3.94628,-3.98101 z m 15.12776,4.64458 a 3.9463409,3.9810727 0 0 1 3.94628,3.981 3.9463409,3.9810727 0 0 1 -3.94628,3.98102 3.9463409,3.9810727 0 0 1 -3.94628,-3.98102 3.9463409,3.9810727 0 0 1 3.94628,-3.981 z m -11.83882,10.61633 a 3.9463409,3.9810727 0 0 1 3.94627,3.981 3.9463409,3.9810727 0 0 1 -3.94627,3.98101 3.9463409,3.9810727 0 0 1 -3.94674,-3.98101 3.9463409,3.9810727 0 0 1 3.94674,-3.981 z"
       id="path4518"
       inkscape:connector-curvature="0" />
  </g>
</svg>
