<?xml version="1.0" encoding="UTF-8" standalone="no"?>
<!-- Created with Inkscape (http://www.inkscape.org/) -->

<svg
   xmlns:dc="http://purl.org/dc/elements/1.1/"
   xmlns:cc="http://creativecommons.org/ns#"
   xmlns:rdf="http://www.w3.org/1999/02/22-rdf-syntax-ns#"
   xmlns:svg="http://www.w3.org/2000/svg"
   xmlns="http://www.w3.org/2000/svg"
   xmlns:sodipodi="http://sodipodi.sourceforge.net/DTD/sodipodi-0.dtd"
   xmlns:inkscape="http://www.inkscape.org/namespaces/inkscape"
   version="1.1"
   id="svg2"
   xml:space="preserve"
   width="698.61621"
   height="698.61621"
   viewBox="0 0 698.61621 698.61621"
   sodipodi:docname="ko-fi_logo.svg"
   inkscape:version="0.92.4 (5da689c313, 2019-01-14)"><metadata
     id="metadata8"><rdf:RDF><cc:Work
         rdf:about=""><dc:format>image/svg+xml</dc:format><dc:type
           rdf:resource="http://purl.org/dc/dcmitype/StillImage" /><dc:title></dc:title></cc:Work></rdf:RDF></metadata><defs
     id="defs6"><clipPath
       clipPathUnits="userSpaceOnUse"
       id="clipPath18"><path
         d="M 0,600 H 1654.775 V 0 H 0 Z"
         id="path16"
         inkscape:connector-curvature="0" /></clipPath></defs><sodipodi:namedview
     pagecolor="#ffffff"
     bordercolor="#666666"
     borderopacity="1"
     objecttolerance="10"
     gridtolerance="10"
     guidetolerance="10"
     inkscape:pageopacity="0"
     inkscape:pageshadow="2"
     inkscape:window-width="1366"
     inkscape:window-height="705"
     id="namedview4"
     showgrid="false"
     fit-margin-top="0"
     fit-margin-left="0"
     fit-margin-right="0"
     fit-margin-bottom="0"
     showguides="true"
     inkscape:zoom="0.18220054"
     inkscape:cx="1232.197"
     inkscape:cy="238.468"
     inkscape:window-x="-8"
     inkscape:window-y="32"
     inkscape:window-maximized="1"
     inkscape:current-layer="g10"
     inkscape:guide-bbox="true"><inkscape:grid
       type="xygrid"
       id="grid4588" /><sodipodi:guide
       position="1026.3416,351.26131"
       orientation="0,1"
       id="guide4606"
       inkscape:locked="false"
       inkscape:label=""
       inkscape:color="rgb(0,0,255)" /><sodipodi:guide
       position="340.28439,740.94183"
       orientation="1,0"
       id="guide4608"
       inkscape:locked="false" /></sodipodi:namedview><g
     inkscape:groupmode="layer"
     id="layer1"
     inkscape:label="Ko-fi_Logo_RGB_ColorBg 1"
     transform="translate(-90.521344,60.148208)" /><g
     id="g10"
     inkscape:groupmode="layer"
     inkscape:label="Ko-fi_Logo_RGB_ColorBg"
     transform="matrix(1.3333333,0,0,-1.3333333,-90.521344,860.14821)"><g
       id="g4586"
       transform="translate(-4.433091,110.12919)"><g
         transform="translate(589.2461,354.551)"
         id="g20"><path
           inkscape:connector-curvature="0"
           id="path22"
           style="fill:#ffffff;fill-opacity:1;fill-rule:nonzero;stroke:none"
           d="m 0,0 c -7.267,38.377 -27.926,62.284 -49.099,77.067 -21.895,15.288 -48.123,23.144 -74.828,23.144 H -502.93 c -13.185,0 -18.235,-12.873 -18.285,-19.32 -0.006,-0.841 0.024,-4.205 0.024,-4.205 0,0 -0.622,-167.677 0.556,-257.234 3.576,-52.873 56.55,-52.854 56.55,-52.854 0,0 172.955,0.506 255.901,1.022 3.89,0.024 7.776,0.443 11.55,1.388 47.227,11.814 52.113,55.688 51.608,80.146 C -50.101,-156.12 16.875,-89.137 0,0 m -106.635,-87.022 c -20.244,-2.53 -36.691,-0.631 -36.691,-0.631 V 36.306 h 24.909 c 16.463,0 32.345,-6.856 43.087,-19.331 7.561,-8.784 13.611,-21.146 13.611,-38.222 0,-41.741 -21.508,-58.186 -44.916,-65.775" /></g><g
         transform="translate(253.6797,190.6838)"
         id="g24"><path
           inkscape:connector-curvature="0"
           id="path26"
           style="fill:#ff5e5b;fill-opacity:1;fill-rule:nonzero;stroke:none"
           d="m 0,0 c 4.122,-2.075 6.756,0.504 6.756,0.504 0,0 60.322,55.056 87.498,86.764 24.17,28.365 25.746,76.166 -15.764,94.026 -41.508,17.859 -75.66,-21.012 -75.66,-21.012 -29.616,32.573 -74.44,30.924 -95.172,8.88 -20.731,-22.044 -13.491,-59.88 1.975,-80.937 14.518,-19.767 78.332,-76.644 88.004,-86.263 0,0 0.705,-0.737 2.363,-1.962" /></g></g></g></svg>