<?xml version="1.0" encoding="UTF-8" standalone="no"?>
<!-- Created with Inkscape (http://www.inkscape.org/) -->

<svg
   xmlns:dc="http://purl.org/dc/elements/1.1/"
   xmlns:cc="http://creativecommons.org/ns#"
   xmlns:rdf="http://www.w3.org/1999/02/22-rdf-syntax-ns#"
   xmlns:svg="http://www.w3.org/2000/svg"
   xmlns="http://www.w3.org/2000/svg"
   xmlns:sodipodi="http://sodipodi.sourceforge.net/DTD/sodipodi-0.dtd"
   xmlns:inkscape="http://www.inkscape.org/namespaces/inkscape"
   width="86mm"
   height="86mm"
   viewBox="0 0 86 86"
   version="1.1"
   id="svg8"
   inkscape:version="0.92.4 (5da689c313, 2019-01-14)"
   sodipodi:docname="logo.svg">
  <defs
     id="defs2" />
  <sodipodi:namedview
     id="base"
     pagecolor="#ffffff"
     bordercolor="#666666"
     borderopacity="1.0"
     inkscape:pageopacity="0.0"
     inkscape:pageshadow="2"
     inkscape:zoom="0.35"
     inkscape:cx="363.58176"
     inkscape:cy="-89.700192"
     inkscape:document-units="mm"
     inkscape:current-layer="layer1"
     showgrid="false"
     fit-margin-top="0"
     fit-margin-left="0"
     fit-margin-right="0"
     fit-margin-bottom="0"
     inkscape:window-width="1366"
     inkscape:window-height="705"
     inkscape:window-x="-8"
     inkscape:window-y="32"
     inkscape:window-maximized="1" />
  <metadata
     id="metadata5">
    <rdf:RDF>
      <cc:Work
         rdf:about="">
        <dc:format>image/svg+xml</dc:format>
        <dc:type
           rdf:resource="http://purl.org/dc/dcmitype/StillImage" />
        <dc:title></dc:title>
      </cc:Work>
    </rdf:RDF>
  </metadata>
  <g
     inkscape:label="Livello 1"
     inkscape:groupmode="layer"
     id="layer1"
     transform="translate(-51.026858,-93.449511)">
    <path
       style="fill:#dc3545;stroke-width:3.77952766;stroke-miterlimit:4;stroke-dasharray:none;fill-opacity:1"
       d="m 356.42773,358.94922 a 15,15 0 0 0 -15,15 15,15 0 0 0 10.71485,14.36523 v 25.66993 a 107.14286,107.14286 0 0 0 -53.7832,15 l -14.53321,-24.93555 a 15,15 0 0 0 3.31641,-9.38672 15,15 0 0 0 -15,-15 15,15 0 0 0 -15,15 15,15 0 0 0 15,15 15,15 0 0 0 2.4375,-0.20508 l 14.83008,25.44922 a 107.14286,107.14286 0 0 0 -33.40235,40.63281 l -7.65625,-4.14844 a 15,15 0 0 0 -14.77929,-12.4414 15,15 0 0 0 -15,15 15,15 0 0 0 15,15 15,15 0 0 0 8.1914,-2.44141 l 8.32617,4.50977 a 107.14286,107.14286 0 0 0 -4.375,30.07422 107.14286,107.14286 0 0 0 0.24024,4.80468 l -25.33985,4.47071 a 15,15 0 0 0 -12.75781,-7.13281 15,15 0 0 0 -15,15 15,15 0 0 0 15,15 15,15 0 0 0 14.75,-12.33985 l 24.36914,-4.29687 a 107.14286,107.14286 0 0 0 10.84766,33.77539 l -26.35547,16.83593 a 15,15 0 0 0 -7.18359,-1.83203 15,15 0 0 0 -15,15 15,15 0 0 0 15,15 15,15 0 0 0 14.93164,-13.62109 l 27.28906,-17.43555 a 107.14286,107.14286 0 0 0 25.86133,25.06836 l -7.25391,9.76367 A 15,15 0 0 0 280,618.23438 a 15,15 0 0 0 -15,15 15,15 0 0 0 15,15 15,15 0 0 0 15,-15 15,15 0 0 0 -1.76953,-7.04297 l 8.30273,-11.17579 a 107.14286,107.14286 0 0 0 39.53907,12.43946 v 22.40234 a 15,15 0 0 0 -8.21485,13.37696 15,15 0 0 0 15,15 15,15 0 0 0 15,-15 A 15,15 0 0 0 357.5,651.74609 v -23.74414 a 107.14286,107.14286 0 0 0 36.18555,-7.89843 l 2.24218,4.37695 a 15,15 0 0 0 -2.35546,8.03906 15,15 0 0 0 15,15 15,15 0 0 0 15,-15 15,15 0 0 0 -12.64844,-14.79687 l -2.61719,-5.10743 a 107.14286,107.14286 0 0 0 25.92383,-22.01562 l 18.41601,18.86914 a 15,15 0 0 0 -1.21875,5.9082 15,15 0 0 0 15,15 15,15 0 0 0 15,-15 15,15 0 0 0 -15,-15 15,15 0 0 0 -6.30859,1.41016 L 440.83398,582.0293 a 107.14286,107.14286 0 0 0 15.14649,-31.92774 l 29.17969,6.62696 A 15,15 0 0 0 500,569.66211 a 15,15 0 0 0 15,-15 15,15 0 0 0 -15,-15 15,15 0 0 0 -12.4375,6.625 L 458.36328,539.6543 A 107.14286,107.14286 0 0 0 460,521.0918 107.14286,107.14286 0 0 0 457.6875,499.11523 l 22.16016,-5.66601 a 15,15 0 0 0 9.4375,3.35547 15,15 0 0 0 15,-15 15,15 0 0 0 -15,-15 15,15 0 0 0 -14.42969,10.96093 l -21.85742,5.58985 a 107.14286,107.14286 0 0 0 -33.82813,-46.39649 l 12.64844,-18.54296 a 15,15 0 0 0 3.89648,0.5332 15,15 0 0 0 15,-15 15,15 0 0 0 -15,-15 15,15 0 0 0 -15,15 15,15 0 0 0 2.42578,8.17383 l -12.70703,18.63086 a 107.14286,107.14286 0 0 0 -47.57617,-16.24219 v -27.02734 a 15,15 0 0 0 8.57031,-13.53516 15,15 0 0 0 -15,-15 z m -42.14257,123.57031 a 17.142857,17.142857 0 0 1 17.14257,17.14258 17.142857,17.142857 0 0 1 -17.14257,17.14258 17.142857,17.142857 0 0 1 -17.14258,-17.14258 17.142857,17.142857 0 0 1 17.14258,-17.14258 z m 65.71484,20 A 17.142857,17.142857 0 0 1 397.14258,519.66211 17.142857,17.142857 0 0 1 380,536.80469 17.142857,17.142857 0 0 1 362.85742,519.66211 17.142857,17.142857 0 0 1 380,502.51953 Z m -51.42773,45.71485 a 17.142857,17.142857 0 0 1 17.14257,17.14257 17.142857,17.142857 0 0 1 -17.14257,17.14258 17.142857,17.142857 0 0 1 -17.14454,-17.14258 17.142857,17.142857 0 0 1 17.14454,-17.14257 z"
       transform="scale(0.26458333)"
       id="path4518"
       inkscape:connector-curvature="0" />
  </g>
</svg>
