<?xml version="1.0" encoding="UTF-8" standalone="no"?>
<svg
   xmlns:dc="http://purl.org/dc/elements/1.1/"
   xmlns:cc="http://creativecommons.org/ns#"
   xmlns:rdf="http://www.w3.org/1999/02/22-rdf-syntax-ns#"
   xmlns:svg="http://www.w3.org/2000/svg"
   xmlns="http://www.w3.org/2000/svg"
   xmlns:sodipodi="http://sodipodi.sourceforge.net/DTD/sodipodi-0.dtd"
   xmlns:inkscape="http://www.inkscape.org/namespaces/inkscape"
   width="367.45975"
   height="80"
   viewBox="0 0 367.45975 80"
   version="1.1"
   id="svg168"
   sodipodi:docname="scarica_immuni_logo.svg"
   style="fill:none"
   inkscape:version="0.92.4 (5da689c313, 2019-01-14)">
  <metadata
     id="metadata172">
    <rdf:RDF>
      <cc:Work
         rdf:about="">
        <dc:format>image/svg+xml</dc:format>
        <dc:type
           rdf:resource="http://purl.org/dc/dcmitype/StillImage" />
        <dc:title></dc:title>
      </cc:Work>
    </rdf:RDF>
  </metadata>
  <sodipodi:namedview
     pagecolor="#ffffff"
     bordercolor="#666666"
     borderopacity="1"
     objecttolerance="10"
     gridtolerance="10"
     guidetolerance="10"
     inkscape:pageopacity="0"
     inkscape:pageshadow="2"
     inkscape:window-width="1366"
     inkscape:window-height="705"
     id="namedview170"
     showgrid="false"
     inkscape:zoom="1.6116071"
     inkscape:cx="97.863775"
     inkscape:cy="40"
     inkscape:window-x="-8"
     inkscape:window-y="32"
     inkscape:window-maximized="1"
     inkscape:current-layer="svg168"
     showguides="false"
     fit-margin-top="0"
     fit-margin-left="0"
     fit-margin-right="0"
     fit-margin-bottom="0" />
  <g
     clip-path="url(#clip0)"
     id="g48"
     transform="translate(145.23773)">
    <path
       d="m 98.9252,27.0036 c 0,-1.8265 -1.484,-3.3105 -3.3486,-3.3105 -1.7884,0 -3.3105,1.484 -3.3105,3.3105 0,1.8265 1.5221,3.3105 3.3105,3.3105 1.8646,0 3.3486,-1.484 3.3486,-3.3105 z m -5.9361,23.9693 c 0,0.8215 0.6659,1.4874 1.4874,1.4874 h 2.2383 c 0.8215,0 1.4874,-0.6659 1.4874,-1.4874 V 34.9218 c 0,-0.8215 -0.6659,-1.4874 -1.4874,-1.4874 h -2.2383 c -0.8215,0 -1.4874,0.6659 -1.4874,1.4874 z"
       id="path2"
       inkscape:connector-curvature="0"
       style="fill:#5751ff" />
    <path
       d="m 103.208,50.9729 c 0,0.8215 0.666,1.4874 1.487,1.4874 h 2.239 c 0.821,0 1.487,-0.6659 1.487,-1.4874 v -7.7972 c 0,-3.653 1.56,-5.4034 3.805,-5.4034 2.055,0 2.968,1.7123 2.968,4.5282 v 8.6724 c 0,0.8215 0.666,1.4874 1.488,1.4874 h 2.238 c 0.822,0 1.488,-0.6659 1.488,-1.4874 v -7.7972 c 0,-3.653 1.56,-5.4034 3.805,-5.4034 2.055,0 2.968,1.7123 2.968,4.5282 v 8.6724 c 0,0.8215 0.666,1.4874 1.487,1.4874 h 2.238 c 0.822,0 1.488,-0.6659 1.488,-1.4874 v -9.5476 c 0,-5.137 -2.588,-8.4095 -7.116,-8.4095 -1.615,0 -3.442,0.6332 -4.756,1.9311 -0.577,0.5697 -1.701,0.5676 -2.258,-0.0209 -1.161,-1.2245 -2.76,-1.9102 -4.782,-1.9102 -2.321,0 -4.033,1.1035 -5.061,2.5875 v -0.6815 c 0,-0.8215 -0.666,-1.4874 -1.487,-1.4874 h -2.239 c -0.821,0 -1.487,0.6659 -1.487,1.4874 z"
       id="path4"
       inkscape:connector-curvature="0"
       style="fill:#5751ff" />
    <path
       d="m 137.172,50.9729 c 0,0.8215 0.666,1.4874 1.488,1.4874 h 2.238 c 0.822,0 1.487,-0.6659 1.487,-1.4874 v -7.7972 c 0,-3.653 1.561,-5.4034 3.806,-5.4034 2.054,0 2.968,1.7123 2.968,4.5282 v 8.6724 c 0,0.8215 0.666,1.4874 1.487,1.4874 h 2.238 c 0.822,0 1.488,-0.6659 1.488,-1.4874 v -7.7972 c 0,-3.653 1.56,-5.4034 3.805,-5.4034 2.055,0 2.968,1.7123 2.968,4.5282 v 8.6724 c 0,0.8215 0.666,1.4874 1.487,1.4874 h 2.239 c 0.821,0 1.487,-0.6659 1.487,-1.4874 v -9.5476 c 0,-5.137 -2.587,-8.4095 -7.116,-8.4095 -1.615,0 -3.441,0.6332 -4.756,1.9311 -0.577,0.5697 -1.7,0.5676 -2.258,-0.0209 -1.161,-1.2245 -2.759,-1.9102 -4.782,-1.9102 -2.321,0 -4.033,1.1035 -5.061,2.5875 v -0.6815 c 0,-0.8215 -0.665,-1.4874 -1.487,-1.4874 h -2.238 c -0.822,0 -1.488,0.6659 -1.488,1.4874 z"
       id="path6"
       inkscape:connector-curvature="0"
       style="fill:#5751ff" />
    <path
       d="m 170.908,44.4694 c 0,5.0609 2.55,8.4095 7.154,8.4095 2.435,0 4.224,-1.0655 5.213,-2.5876 v 0.6816 c 0,0.8215 0.666,1.4874 1.487,1.4874 h 2.239 c 0.821,0 1.487,-0.6659 1.487,-1.4874 V 34.9218 c 0,-0.8215 -0.666,-1.4874 -1.487,-1.4874 h -2.239 c -0.821,0 -1.487,0.6659 -1.487,1.4874 v 7.7972 c 0,3.6911 -1.598,5.4034 -3.919,5.4034 -2.245,0 -3.235,-1.6743 -3.235,-4.5282 v -8.6724 c 0,-0.8215 -0.666,-1.4874 -1.487,-1.4874 h -2.238 c -0.822,0 -1.488,0.6659 -1.488,1.4874 z"
       id="path8"
       inkscape:connector-curvature="0"
       style="fill:#5751ff" />
    <path
       d="m 193.507,50.9729 c 0,0.8215 0.666,1.4874 1.487,1.4874 h 2.239 c 0.821,0 1.487,-0.6659 1.487,-1.4874 v -7.7972 c 0,-3.653 1.827,-5.4034 4.224,-5.4034 2.169,0 3.348,1.6743 3.348,4.414 v 8.7866 c 0,0.8215 0.666,1.4874 1.488,1.4874 h 2.238 c 0.822,0 1.487,-0.6659 1.487,-1.4874 v -9.6618 c 0,-4.9467 -2.739,-8.2953 -7.344,-8.2953 -2.473,0 -4.452,1.0655 -5.441,2.5875 v -0.6815 c 0,-0.8215 -0.666,-1.4874 -1.487,-1.4874 h -2.239 c -0.821,0 -1.487,0.6659 -1.487,1.4874 z"
       id="path10"
       inkscape:connector-curvature="0"
       style="fill:#5751ff" />
    <path
       d="m 222.222,27.0036 c 0,-1.8265 -1.484,-3.3105 -3.348,-3.3105 -1.789,0 -3.311,1.484 -3.311,3.3105 0,1.8265 1.522,3.3105 3.311,3.3105 1.864,0 3.348,-1.484 3.348,-3.3105 z m -5.936,23.9693 c 0,0.8215 0.666,1.4874 1.487,1.4874 h 2.239 c 0.821,0 1.487,-0.6659 1.487,-1.4874 V 34.9218 c 0,-0.8215 -0.666,-1.4874 -1.487,-1.4874 h -2.239 c -0.821,0 -1.487,0.6659 -1.487,1.4874 z"
       id="path12"
       inkscape:connector-curvature="0"
       style="fill:#5751ff" />
    <circle
       cx="40"
       cy="40"
       r="40"
       id="circle14"
       style="fill:url(#paint0_radial);fill-opacity:0.1" />
    <circle
       cx="40"
       cy="40"
       r="39.820099"
       id="circle16"
       style="stroke:#5751ff;stroke-width:0.35971999;stroke-linecap:round;stroke-linejoin:round;stroke-opacity:0.02000002" />
    <circle
       cx="40.0061"
       cy="40"
       r="34.603298"
       id="circle18"
       style="fill:url(#paint1_radial);fill-opacity:0.2" />
    <circle
       cx="40.0061"
       cy="40"
       r="34.426998"
       id="circle20"
       style="stroke:#5751ff;stroke-width:0.35252601;stroke-linecap:round;stroke-linejoin:round;stroke-opacity:0.03999999" />
    <path
       d="M 66.8099,61.8942 C 60.4643,69.656 50.814,74.6106 40.0065,74.6106 c -10.815,0 -20.4712,-4.9615 -26.8166,-12.7324 5.8528,8.5407 15.6798,14.1438 26.8155,14.1438 11.1287,0 20.9504,-5.5961 26.8045,-14.1278 z"
       id="path22"
       inkscape:connector-curvature="0"
       style="clip-rule:evenodd;fill:#ffffff;fill-opacity:0.5;fill-rule:evenodd" />
    <circle
       cx="40.006302"
       cy="39.999699"
       r="28.450399"
       id="circle24"
       style="fill:#5751ff" />
    <circle
       cx="40.006302"
       cy="39.999699"
       r="28.450399"
       id="circle26"
       style="fill:url(#paint2_radial)" />
    <path
       d="m 15.8293,27.985 c 6.2264,-8.6304 16.3693,-14.2479 27.8243,-14.2479 1.0799,0 2.1481,0.0499 3.2025,0.1476 -2.1875,-0.5722 -4.4832,-0.8769 -6.85,-0.8769 -10.5906,0 -19.7566,6.0995 -24.1768,14.9772 z"
       id="path28"
       inkscape:connector-curvature="0"
       style="clip-rule:evenodd;fill:url(#paint3_linear);fill-opacity:0.5;fill-rule:evenodd" />
    <path
       d="m 40.0067,32.6898 c 3.4561,0 6.2578,-2.8017 6.2578,-6.2578 0,-3.456 -2.8017,-6.2577 -6.2578,-6.2577 -3.456,0 -6.2577,2.8017 -6.2577,6.2577 0,3.4561 2.8017,6.2578 6.2577,6.2578 z"
       id="path30"
       inkscape:connector-curvature="0"
       style="fill:#000000;fill-opacity:0.45" />
    <g
       id="g34"
       style="filter:url(#filter0_dd)">
      <path
         d="m 40.0067,32.296 c 3.4561,0 6.2578,-2.8017 6.2578,-6.2578 0,-3.456 -2.8017,-6.2577 -6.2578,-6.2577 -3.456,0 -6.2577,2.8017 -6.2577,6.2577 0,3.4561 2.8017,6.2578 6.2577,6.2578 z"
         id="path32"
         inkscape:connector-curvature="0"
         style="fill:url(#paint4_radial)" />
    </g>
    <path
       d="m 52.6477,35.096 c -1.828,-2.1024 -5.0142,-2.3249 -7.1166,-0.4969 L 32.3188,46.087 45.5308,57.5744 c 2.1023,1.828 5.2885,1.6055 7.1165,-0.4969 1.828,-2.1023 1.6055,-5.2885 -0.4969,-7.1165 l -4.4556,-3.8741 4.456,-3.8744 c 2.1024,-1.828 2.3248,-5.0142 0.4969,-7.1165 z"
       id="path36"
       inkscape:connector-curvature="0"
       style="fill:#000000;fill-opacity:0.45" />
    <g
       id="g40"
       style="filter:url(#filter1_dd)">
      <path
         d="m 52.6477,34.6892 c -1.828,-2.1024 -5.0142,-2.3248 -7.1166,-0.4968 l -13.2123,11.4878 13.212,11.4875 c 2.1023,1.8279 5.2885,1.6055 7.1165,-0.4969 1.828,-2.1024 1.6055,-5.2886 -0.4969,-7.1165 l -4.4556,-3.8741 4.456,-3.8744 c 2.1024,-1.828 2.3248,-5.0142 0.4969,-7.1166 z"
         id="path38"
         inkscape:connector-curvature="0"
         style="fill:#b8bcff" />
    </g>
    <path
       d="m 27.3662,35.0833 c 1.828,-2.1024 5.0142,-2.3249 7.1166,-0.4969 l 7.0138,5.704 6.1984,5.3909 0.2261,0.1954 -13.438,11.685 c -2.1024,1.828 -5.2886,1.6055 -7.1165,-0.4969 -1.828,-2.1023 -1.6056,-5.2885 0.4968,-7.1165 l 4.4557,-3.8741 -4.4561,-3.8744 c -2.1023,-1.828 -2.3248,-5.0142 -0.4968,-7.1165 z"
       id="path42"
       inkscape:connector-curvature="0"
       style="fill:#000000;fill-opacity:0.45" />
    <g
       id="g46"
       style="filter:url(#filter2_dd)">
      <path
         d="m 27.3662,34.6892 c 1.828,-2.1024 5.0142,-2.3248 7.1166,-0.4968 L 47.695,45.6802 34.4831,57.1677 c -2.1024,1.8279 -5.2886,1.6055 -7.1165,-0.4969 -1.828,-2.1024 -1.6056,-5.2886 0.4968,-7.1165 l 4.4557,-3.8741 -4.4561,-3.8744 c -2.1023,-1.828 -2.3248,-5.0142 -0.4968,-7.1166 z"
         id="path44"
         inkscape:connector-curvature="0"
         style="fill:url(#paint5_radial)" />
    </g>
  </g>
  <defs
     id="defs166">
    <filter
       id="filter0_dd"
       x="31.2973"
       y="18.146099"
       width="17.4188"
       height="19.870501"
       filterUnits="userSpaceOnUse"
       style="color-interpolation-filters:sRGB">
      <feFlood
         flood-opacity="0"
         result="BackgroundImageFix"
         id="feFlood50" />
      <feColorMatrix
         in="SourceAlpha"
         type="matrix"
         values="0 0 0 0 0 0 0 0 0 0 0 0 0 0 0 0 0 0 127 0"
         id="feColorMatrix52" />
      <feOffset
         dy="3.26892"
         id="feOffset54" />
      <feGaussianBlur
         stdDeviation="1.22584"
         id="feGaussianBlur56" />
      <feColorMatrix
         type="matrix"
         values="0 0 0 0 0.0235294 0 0 0 0 0 0 0 0 0 0.682353 0 0 0 0.1 0"
         id="feColorMatrix58" />
      <feBlend
         mode="normal"
         in2="BackgroundImageFix"
         result="effect1_dropShadow"
         id="feBlend60" />
      <feColorMatrix
         in="SourceAlpha"
         type="matrix"
         values="0 0 0 0 0 0 0 0 0 0 0 0 0 0 0 0 0 0 127 0"
         id="feColorMatrix62" />
      <feOffset
         dy="0.81723"
         id="feOffset64" />
      <feGaussianBlur
         stdDeviation="1.22584"
         id="feGaussianBlur66" />
      <feColorMatrix
         type="matrix"
         values="0 0 0 0 0.0235294 0 0 0 0 0 0 0 0 0 0.682353 0 0 0 0.2 0"
         id="feColorMatrix68" />
      <feBlend
         mode="normal"
         in2="effect1_dropShadow"
         result="effect2_dropShadow"
         id="feBlend70" />
      <feBlend
         mode="normal"
         in="SourceGraphic"
         in2="effect2_dropShadow"
         result="shape"
         id="feBlend72" />
    </filter>
    <filter
       id="filter1_dd"
       x="29.867201"
       y="31.320101"
       width="26.469999"
       height="32.805901"
       filterUnits="userSpaceOnUse"
       style="color-interpolation-filters:sRGB">
      <feFlood
         flood-opacity="0"
         result="BackgroundImageFix"
         id="feFlood75" />
      <feColorMatrix
         in="SourceAlpha"
         type="matrix"
         values="0 0 0 0 0 0 0 0 0 0 0 0 0 0 0 0 0 0 127 0"
         id="feColorMatrix77" />
      <feOffset
         dy="3.26892"
         id="feOffset79" />
      <feGaussianBlur
         stdDeviation="1.22584"
         id="feGaussianBlur81" />
      <feColorMatrix
         type="matrix"
         values="0 0 0 0 0.0235294 0 0 0 0 0 0 0 0 0 0.682353 0 0 0 0.1 0"
         id="feColorMatrix83" />
      <feBlend
         mode="normal"
         in2="BackgroundImageFix"
         result="effect1_dropShadow"
         id="feBlend85" />
      <feColorMatrix
         in="SourceAlpha"
         type="matrix"
         values="0 0 0 0 0 0 0 0 0 0 0 0 0 0 0 0 0 0 127 0"
         id="feColorMatrix87" />
      <feOffset
         dy="0.81723"
         id="feOffset89" />
      <feGaussianBlur
         stdDeviation="1.22584"
         id="feGaussianBlur91" />
      <feColorMatrix
         type="matrix"
         values="0 0 0 0 0.0235294 0 0 0 0 0 0 0 0 0 0.682353 0 0 0 0.2 0"
         id="feColorMatrix93" />
      <feBlend
         mode="normal"
         in2="effect1_dropShadow"
         result="effect2_dropShadow"
         id="feBlend95" />
      <feBlend
         mode="normal"
         in="SourceGraphic"
         in2="effect2_dropShadow"
         result="shape"
         id="feBlend97" />
    </filter>
    <filter
       id="filter2_dd"
       x="23.676701"
       y="31.320101"
       width="26.469999"
       height="32.805901"
       filterUnits="userSpaceOnUse"
       style="color-interpolation-filters:sRGB">
      <feFlood
         flood-opacity="0"
         result="BackgroundImageFix"
         id="feFlood100" />
      <feColorMatrix
         in="SourceAlpha"
         type="matrix"
         values="0 0 0 0 0 0 0 0 0 0 0 0 0 0 0 0 0 0 127 0"
         id="feColorMatrix102" />
      <feOffset
         dy="3.26892"
         id="feOffset104" />
      <feGaussianBlur
         stdDeviation="1.22584"
         id="feGaussianBlur106" />
      <feColorMatrix
         type="matrix"
         values="0 0 0 0 0.0235294 0 0 0 0 0 0 0 0 0 0.682353 0 0 0 0.1 0"
         id="feColorMatrix108" />
      <feBlend
         mode="normal"
         in2="BackgroundImageFix"
         result="effect1_dropShadow"
         id="feBlend110" />
      <feColorMatrix
         in="SourceAlpha"
         type="matrix"
         values="0 0 0 0 0 0 0 0 0 0 0 0 0 0 0 0 0 0 127 0"
         id="feColorMatrix112" />
      <feOffset
         dy="0.81723"
         id="feOffset114" />
      <feGaussianBlur
         stdDeviation="1.22584"
         id="feGaussianBlur116" />
      <feColorMatrix
         type="matrix"
         values="0 0 0 0 0.0235294 0 0 0 0 0 0 0 0 0 0.682353 0 0 0 0.2 0"
         id="feColorMatrix118" />
      <feBlend
         mode="normal"
         in2="effect1_dropShadow"
         result="effect2_dropShadow"
         id="feBlend120" />
      <feBlend
         mode="normal"
         in="SourceGraphic"
         in2="effect2_dropShadow"
         result="shape"
         id="feBlend122" />
    </filter>
    <radialGradient
       id="paint0_radial"
       cx="0"
       cy="0"
       r="1"
       gradientUnits="userSpaceOnUse"
       gradientTransform="matrix(0,40,-40,0,40,40)">
      <stop
         offset="0.869648"
         stop-color="#5751FF"
         stop-opacity="0.6"
         id="stop125" />
      <stop
         offset="1"
         stop-color="#5751FF"
         stop-opacity="0.833333"
         id="stop127" />
    </radialGradient>
    <radialGradient
       id="paint1_radial"
       cx="0"
       cy="0"
       r="1"
       gradientUnits="userSpaceOnUse"
       gradientTransform="matrix(0,34.6033,-34.6033,0,40.0061,40)">
      <stop
         offset="0.811269"
         stop-color="#5751FF"
         stop-opacity="0.4"
         id="stop130" />
      <stop
         offset="1"
         stop-color="#5751FF"
         stop-opacity="0.833333"
         id="stop132" />
    </radialGradient>
    <radialGradient
       id="paint2_radial"
       cx="0"
       cy="0"
       r="1"
       gradientUnits="userSpaceOnUse"
       gradientTransform="matrix(0,32.0979,-32.0979,0,40.0062,36.3522)">
      <stop
         offset="0.0001"
         stop-color="white"
         stop-opacity="0.2"
         id="stop135" />
      <stop
         offset="0.804334"
         stop-color="#5751FF"
         stop-opacity="0.15"
         id="stop137" />
      <stop
         offset="1"
         stop-color="#241DD6"
         id="stop139" />
    </radialGradient>
    <linearGradient
       id="paint3_linear"
       x1="46.935001"
       y1="14.4667"
       x2="15.9329"
       y2="28.326401"
       gradientUnits="userSpaceOnUse">
      <stop
         stop-color="white"
         stop-opacity="0"
         id="stop142" />
      <stop
         offset="0.510417"
         stop-color="white"
         id="stop144" />
      <stop
         offset="1"
         stop-color="white"
         stop-opacity="0"
         id="stop146" />
    </linearGradient>
    <radialGradient
       id="paint4_radial"
       cx="0"
       cy="0"
       r="1"
       gradientUnits="userSpaceOnUse"
       gradientTransform="matrix(-12.379275,4.5723566,-3.8345679,-10.381773,43.9484,23.27)">
      <stop
         stop-color="white"
         id="stop149" />
      <stop
         offset="0.502954"
         stop-color="white"
         id="stop151" />
      <stop
         offset="1"
         stop-color="#E9EFFF"
         id="stop153" />
    </radialGradient>
    <radialGradient
       id="paint5_radial"
       cx="0"
       cy="0"
       r="1"
       gradientUnits="userSpaceOnUse"
       gradientTransform="matrix(-21.331833,9.2983744,-8.7882291,-20.161485,43.7039,40.0507)">
      <stop
         stop-color="white"
         id="stop156" />
      <stop
         offset="0.502954"
         stop-color="white"
         id="stop158" />
      <stop
         offset="1"
         stop-color="#E9EFFF"
         id="stop160" />
    </radialGradient>
    <clipPath
       id="clip0">
      <rect
         width="222.222"
         height="80"
         id="rect163"
         x="0"
         y="0"
         style="fill:#ffffff" />
    </clipPath>
  </defs>
  <g
     aria-label="Scarica"
     style="font-style:normal;font-variant:normal;font-weight:normal;font-stretch:normal;font-size:40px;line-height:1.25;font-family:'Euclid Circular B';-inkscape-font-specification:'Euclid Circular B';letter-spacing:0px;word-spacing:0px;fill:#5751ff;fill-opacity:1;stroke:none"
     id="text903">
    <path
       d="m 9.2959997,53.284563 q -3.1733333,0 -5.7119998,-1.344 Q 1.0826666,50.596563 -2.7656555e-8,48.505897 L 2.7999999,46.41523 q 2.3519999,3.621333 6.5706664,3.621333 2.1279997,0 3.5093337,-1.045333 1.381333,-1.082667 1.381333,-2.912 0,-3.061333 -3.808,-4.48 l -3.5093333,-1.344 Q 3.8079998,39.097897 2.3519999,37.380564 0.93333327,35.625897 0.93333327,32.937897 q 0,-3.210666 2.31466663,-5.114666 2.3519999,-1.941334 5.9733331,-1.941334 2.426667,0 4.442667,1.008 2.015999,0.970667 3.285333,2.613334 L 14.410666,31.74323 Q 12.208,29.129897 9.1466663,29.129897 q -2.0159999,0 -3.3973332,1.045334 -1.3813333,1.008 -1.3813333,2.613333 0,1.605333 0.9333333,2.538666 0.9333333,0.933334 3.0613333,1.717334 l 3.2106666,1.232 q 3.061333,1.157333 4.592,2.986666 1.568,1.829333 1.568,4.666667 0,3.322666 -2.389334,5.338666 -2.351999,2.016 -6.0479993,2.016 z"
       style="font-size:37.33333206px"
       id="path905" />
    <path
       d="m 30.713665,53.209896 q -4.218666,0 -7.018666,-2.799999 -2.762667,-2.8 -2.762667,-6.906667 0,-4.106666 2.762667,-6.906666 2.8,-2.8 7.018666,-2.8 2.837333,0 5.077333,1.344 2.277333,1.344 3.546667,3.658666 l -2.8,1.568 q -0.821333,-1.642666 -2.352,-2.613333 -1.493333,-0.970667 -3.472,-0.970667 -2.874667,0 -4.704,1.941334 -1.829333,1.941333 -1.829333,4.778666 0,2.837333 1.829333,4.778667 1.829333,1.941333 4.704,1.941333 1.978667,0 3.472,-0.970667 1.530667,-0.970666 2.352,-2.613333 l 2.8,1.568 q -1.269334,2.314667 -3.546667,3.658666 -2.24,1.344 -5.077333,1.344 z"
       style="font-size:37.33333206px"
       id="path907" />
    <path
       d="m 51.151916,53.209896 q -3.882666,0 -6.533333,-2.837333 -2.613333,-2.837333 -2.613333,-6.869333 0,-4.032 2.613333,-6.869333 2.650667,-2.837333 6.533333,-2.837333 2.053334,0 3.808,0.933333 1.792,0.896 2.762667,2.314667 v -2.874667 h 3.210666 v 18.666666 h -3.210666 v -2.874666 q -0.970667,1.418666 -2.762667,2.351999 -1.754666,0.896 -3.808,0.896 z m 0.485334,-2.949333 q 2.762666,0 4.554666,-1.941333 1.792,-1.941333 1.792,-4.816 0,-2.874666 -1.792,-4.816 -1.792,-1.941333 -4.554666,-1.941333 -2.8,0 -4.592,1.941333 -1.792,1.941334 -1.792,4.816 0,2.874667 1.792,4.816 1.792,1.941333 4.592,1.941333 z"
       style="font-size:37.33333206px"
       id="path909" />
    <path
       d="M 66.8675,52.836563 V 34.169897 h 3.210666 v 3.621333 q 0.522667,-1.717333 2.016,-2.762666 1.530667,-1.045334 3.210667,-1.045334 0.821333,0 1.456,0.149334 v 3.322666 q -0.672,-0.298666 -1.754667,-0.298666 -1.941333,0 -3.434666,1.68 -1.493334,1.68 -1.493334,4.741333 v 9.258666 z"
       style="font-size:37.33333206px"
       id="path911" />
    <path
       d="m 83.750914,28.532564 q -0.634667,0.634667 -1.605333,0.634667 -0.970667,0 -1.642667,-0.634667 -0.672,-0.672 -0.672,-1.642667 0,-0.933333 0.672,-1.605333 0.672,-0.672 1.642667,-0.672 0.970666,0 1.605333,0.672 0.634667,0.672 0.634667,1.605333 0,0.970667 -0.634667,1.642667 z m -3.248,24.303999 V 34.169897 h 3.210667 v 18.666666 z"
       style="font-size:37.33333206px"
       id="path913" />
    <path
       d="m 98.088661,53.209896 q -4.218666,0 -7.018666,-2.799999 -2.762667,-2.8 -2.762667,-6.906667 0,-4.106666 2.762667,-6.906666 2.8,-2.8 7.018666,-2.8 2.837329,0 5.077329,1.344 2.27734,1.344 3.54667,3.658666 l -2.8,1.568 q -0.82133,-1.642666 -2.352,-2.613333 -1.49333,-0.970667 -3.471999,-0.970667 -2.874666,0 -4.704,1.941334 -1.829333,1.941333 -1.829333,4.778666 0,2.837333 1.829333,4.778667 1.829334,1.941333 4.704,1.941333 1.978669,0 3.471999,-0.970667 1.53067,-0.970666 2.352,-2.613333 l 2.8,1.568 q -1.26933,2.314667 -3.54667,3.658666 -2.24,1.344 -5.077329,1.344 z"
       style="font-size:37.33333206px"
       id="path915" />
    <path
       d="m 118.52692,53.209896 q -3.88267,0 -6.53334,-2.837333 -2.61333,-2.837333 -2.61333,-6.869333 0,-4.032 2.61333,-6.869333 2.65067,-2.837333 6.53334,-2.837333 2.05333,0 3.808,0.933333 1.792,0.896 2.76266,2.314667 v -2.874667 h 3.21067 v 18.666666 h -3.21067 v -2.874666 q -0.97066,1.418666 -2.76266,2.351999 -1.75467,0.896 -3.808,0.896 z m 0.48533,-2.949333 q 2.76267,0 4.55467,-1.941333 1.792,-1.941333 1.792,-4.816 0,-2.874666 -1.792,-4.816 -1.792,-1.941333 -4.55467,-1.941333 -2.8,0 -4.592,1.941333 -1.792,1.941334 -1.792,4.816 0,2.874667 1.792,4.816 1.792,1.941333 4.592,1.941333 z"
       style="font-size:37.33333206px"
       id="path917" />
  </g>
</svg>
